<svg xmlns="http://www.w3.org/2000/svg" width="164.622" height="66.362" viewBox="0 0 164.622 66.362">
  <g id="fixtimeLogo" transform="translate(0 -0.001)">
    <path id="Trazado_498" data-name="Trazado 498" d="M11.776,61.192,0,106.584H10.7l5.651-21.778H29.535V77.579H18.224l2.843-10.563h9.387V61.192Z" transform="translate(0 -49.829)" fill="#fff"/>
    <rect id="Rectángulo_1487" data-name="Rectángulo 1487" width="9.971" height="45.394" transform="translate(31.909 11.366)" fill="#fff"/>
    <path id="Trazado_499" data-name="Trazado 499" d="M260.753,106.564h-10.7L245.5,91.98l-4.274,14.592h-9.529l7.851-25.8-5.824-19.6h9.591l3.552,13.161,3.956-13.168h8.959l-6.815,21.019Z" transform="translate(-188.673 -49.806)" fill="#fff"/>
    <path id="Trazado_500" data-name="Trazado 500" d="M426.963,67.129H413.652V106.6H403.68V67.129h-5.571V61.211h28.853Z" transform="translate(-324.191 -49.845)" fill="#fff"/>
    <rect id="Rectángulo_1488" data-name="Rectángulo 1488" width="9.971" height="43.996" transform="translate(92.65 22.368)" fill="#fff"/>
    <path id="Trazado_501" data-name="Trazado 501" d="M608.018,101.654h-8.894V76.172l-5.191,25.482h-6.869l-5.952-25.482v25.482h-7.786V56.26h12.819L590.7,79.812l3.958-23.551h13.359Z" transform="translate(-466.874 -45.814)" fill="#fff"/>
    <path id="Trazado_502" data-name="Trazado 502" d="M781.593,56.261v45.393h19.5l0-5.826h-9.529V79.875h8.484V74.367h-8.484V62.085h9.4V56.261Z" transform="translate(-636.472 -45.814)" fill="#fff"/>
    <rect id="Rectángulo_1489" data-name="Rectángulo 1489" width="9.971" height="6.286" transform="translate(92.65 0.001)" fill="#fff"/>
  </g>
</svg>
