<svg xmlns="http://www.w3.org/2000/svg" width="29.815" height="32.531" viewBox="0 0 29.815 32.531">
  <g id="fulanito" transform="translate(-3.173 -1.614)">
    <path id="Trazado_384" data-name="Trazado 384" d="M22.965,2.078c-2.619-.847-8.779-.616-10.319,1.386a10.255,10.255,0,0,0-9.318,8.472c-.61,4.725.748,6.92,1.232,10.474.548,4.026,2.811,5.314,4.621,5.853,2.6,3.44,5.371,3.293,10.018,3.293,9.074,0,13.4-6.071,13.779-16.384.23-6.238-3.429-10.962-10.012-13.093Z" fill="#ff3b3a"/>
    <path id="Trazado_385" data-name="Trazado 385" d="M28.178,15.669a5.9,5.9,0,0,0-4.466-2.541,4.308,4.308,0,0,1,1.925,2.7c.115.809.231,1.463-.5.654-2.93-3.239-6.122-1.964-9.286-3.943a7.5,7.5,0,0,1-2.882-2.912s-.27,2.041-3.619,4.12a7.3,7.3,0,0,0-2.773,3.927c-.462,1.425-.319,2.7-.319,4.867a11.667,11.667,0,0,0,23.334,0c0-3.941-.413-5.481-1.415-6.867Z" transform="translate(-0.022 -0.058)" fill="#d4ab88"/>
    <path id="Trazado_386" data-name="Trazado 386" d="M17.971,30.949a5.267,5.267,0,0,1-3.68-1.284.993.993,0,1,1,1.394-1.414,3.449,3.449,0,0,0,2.286.712,3.441,3.441,0,0,0,2.288-.714,1,1,0,0,1,1.4.029.987.987,0,0,1-.006,1.387A5.267,5.267,0,0,1,17.971,30.949Zm.993-4.963H16.978a.993.993,0,0,1,0-1.985h1.985a.993.993,0,0,1,0,1.985Z" transform="translate(-0.079 -0.163)" fill="#c1694f"/>
    <path id="Trazado_387" data-name="Trazado 387" d="M12.993,21.971A.993.993,0,0,1,12,20.978V18.993a.993.993,0,1,1,1.985,0v1.985A.993.993,0,0,1,12.993,21.971Zm9.927,0a.993.993,0,0,1-.993-.993V18.993a.993.993,0,1,1,1.985,0v1.985A.993.993,0,0,1,22.92,21.971Z" transform="translate(-0.064 -0.12)" fill="#662113"/>
  </g>
</svg>
