<svg xmlns="http://www.w3.org/2000/svg" width="41.809" height="41.809" viewBox="0 0 41.809 41.809">
  <g id="servicio" transform="translate(0 -0.004)">
    <path id="Trazado_423" data-name="Trazado 423" d="M41.063,15.359a20.906,20.906,0,1,0-25.36,25.8Z" transform="translate(0)" fill="#d8f4f2"/>
    <path id="Trazado_424" data-name="Trazado 424" d="M112.233,103.83l-8.982-8.982-2.892,5.463L94.9,103.2l8.982,8.982-6.626,10.479,5.6,5.6a20.91,20.91,0,0,0,25.36-25.8l-7.3-7.3Z" transform="translate(-87.15 -87.099)" fill="#b1eae5"/>
    <g id="Grupo_303" data-name="Grupo 303" transform="translate(6.016 6.019)">
      <path id="Trazado_425" data-name="Trazado 425" d="M88.553,133.769l-3.7-5.556-5.287-3.43-2.93.77L73.971,122.9a5.908,5.908,0,0,0,7.077,7.607l5.384,5.384Z" transform="translate(-73.663 -118.88)" fill="#9ca5a3"/>
      <path id="Trazado_426" data-name="Trazado 426" d="M126.511,77.554l-3.594-3.582a5.922,5.922,0,0,1,4.838.481Z" transform="translate(-118.895 -73.665)" fill="#9ca5a3"/>
    </g>
    <path id="Trazado_427" data-name="Trazado 427" d="M151.685,89.924a5.913,5.913,0,0,0-2.767-6.6L146.746,85.5l-.774,2.94-.01,0,8.986,8.986,2.121-2.121Z" transform="translate(-134.043 -76.519)" fill="#b0b7b6"/>
    <g id="Grupo_304" data-name="Grupo 304" transform="translate(20.905 18.788)">
      <path id="Trazado_428" data-name="Trazado 428" d="M256.006,232.154l3.7,5.556,5.287,3.43,2.93-.77,2.666,2.654a5.908,5.908,0,0,0-7.077-7.607l-5.384-5.384Z" transform="translate(-256.006 -230.033)" fill="#9ca5a3"/>
      <path id="Trazado_429" data-name="Trazado 429" d="M331.093,390.716l3.594,3.582a5.922,5.922,0,0,1-4.838-.481Z" transform="translate(-323.819 -377.595)" fill="#9ca5a3"/>
    </g>
    <path id="Trazado_430" data-name="Trazado 430" d="M235.417,263.511a5.913,5.913,0,0,0,2.767,6.6l2.172-2.172.774-2.94.01,0-8.986-8.986-2.121,2.121Z" transform="translate(-211.249 -235.098)" fill="#889391"/>
    <path id="Trazado_431" data-name="Trazado 431" d="M163.812,196.126l-11.087,11.087-1.415-2.7L162.4,193.425Z" transform="translate(-138.954 -177.626)" fill="#c3c9c8"/>
    <path id="Trazado_432" data-name="Trazado 432" d="M179.438,217.693l-11.729,11.729-.641-1.927,10.444-10.444Z" transform="translate(-153.424 -199.324)" fill="#b0b7b6"/>
    <path id="Trazado_433" data-name="Trazado 433" d="M249.708,109.394l13.368-10.8a4.089,4.089,0,0,1,0,5.783l-9.192,9.191Z" transform="translate(-229.317 -90.542)" fill="#f63341"/>
    <path id="Trazado_434" data-name="Trazado 434" d="M245.013,85.126,232.931,97.209l-2.892-2.892,9.191-9.191A4.089,4.089,0,0,1,245.013,85.126Z" transform="translate(-211.254 -77.071)" fill="#f85c67"/>
    <path id="Trazado_435" data-name="Trazado 435" d="M261.791,114.338l-12.083,10.8,2.248,2.248,9.834-9.833A2.274,2.274,0,0,0,261.791,114.338Z" transform="translate(-229.317 -104.998)" fill="#c92b31"/>
    <path id="Trazado_436" data-name="Trazado 436" d="M247.745,106.869l-9.834,9.834,1.606,1.606,11.44-11.44A2.274,2.274,0,0,0,247.745,106.869Z" transform="translate(-218.483 -97.528)" fill="#f63341"/>
    <path id="Trazado_437" data-name="Trazado 437" d="M256.005,241.552l3.534,3.534,1.285-1.285-3.534-3.534h-1.285Z" transform="translate(-235.1 -220.643)" fill="#9d2422"/>
    <rect id="Rect치ngulo_578" data-name="Rect치ngulo 578" width="5.001" height="1.818" transform="translate(18.655 16.087) rotate(45)" fill="#c92b31"/>
    <path id="Trazado_438" data-name="Trazado 438" d="M130.912,330.477l-1.647,2.21-1.567-2.852,1.928-.643Z" transform="translate(-117.27 -302.307)" fill="#9ca5a3"/>
    <path id="Trazado_439" data-name="Trazado 439" d="M146.667,346.232l-.643,1.928-2.57-1.284,1.928-1.928Z" transform="translate(-131.74 -316.776)" fill="#889391"/>
    <path id="Trazado_440" data-name="Trazado 440" d="M106.271,362.616l-4.178,4.178-1.927-1.927.964-3.535,3.214-.643Z" transform="translate(-91.987 -331.232)" fill="#b0b7b6"/>
    <rect id="Rect치ngulo_579" data-name="Rect치ngulo 579" width="5.908" height="2.729" transform="translate(12.358 29.457) rotate(135)" fill="#c3c9c8"/>
  </g>
</svg>
