<svg id="tiendaIcon" xmlns="http://www.w3.org/2000/svg" width="36.166" height="32.019" viewBox="0 0 36.166 32.019">
  <path id="Trazado_369" data-name="Trazado 369" d="M36.328,123.716v-19.94H65.492v19.94Z" transform="translate(-32.889 -93.951)" fill="#e2e2e2"/>
  <path id="Trazado_370" data-name="Trazado 370" d="M.928,60.488v5.453a4.51,4.51,0,0,0,9.019,0,4.51,4.51,0,0,0,9.019,0,4.51,4.51,0,0,0,9.019,0,4.51,4.51,0,0,0,9.019,0V60.488Z" transform="translate(-0.84 -54.762)" fill="#f91e1e"/>
  <rect id="Rect치ngulo_567" data-name="Rect치ngulo 567" width="36.054" height="2.255" transform="translate(0 29.764)" fill="#4d4f5c"/>
  <rect id="Rect치ngulo_568" data-name="Rect치ngulo 568" width="9.088" height="10.429" transform="translate(13.477 19.338)" fill="#4d4f5c"/>
  <g id="Grupo_257" data-name="Grupo 257" transform="translate(0.088)">
    <path id="Trazado_371" data-name="Trazado 371" d="M31.241,0l5.764,5.726H.928L6.692,0Z" transform="translate(-0.928)" fill="#e21b1b"/>
  </g>
</svg>
